<svg width="109" height="34" viewBox="0 0 109 34" fill="none" xmlns="http://www.w3.org/2000/svg"><path d="M21.56 9.21L17.028 24.5H14.19L10.978 12.928L7.568 24.5L4.752 24.522L0.418 9.21H3.08L6.248 21.662L9.68 9.21H12.496L15.686 21.596L18.876 9.21H21.56ZM26.1365 9.21V24.5H23.6285V9.21H26.1365ZM41.9913 24.5H39.4833L31.9373 13.082V24.5H29.4293V9.188H31.9373L39.4833 20.584V9.188H41.9913V24.5Z" fill="white"/><path d="M63.338 8.99V24.5H59.026V15.942L56.1 24.5H52.492L49.544 15.876V24.5H45.232V8.99H50.446L54.34 19.066L58.146 8.99H63.338ZM73.2285 24.654C71.7765 24.654 70.4419 24.3167 69.2245 23.642C68.0072 22.9527 67.0392 22.0067 66.3205 20.804C65.6165 19.5867 65.2645 18.2153 65.2645 16.69C65.2645 15.1647 65.6165 13.8007 66.3205 12.598C67.0392 11.3807 68.0072 10.4347 69.2245 9.76C70.4419 9.08533 71.7765 8.748 73.2285 8.748C74.6952 8.748 76.0299 9.08533 77.2325 9.76C78.4499 10.4347 79.4105 11.3807 80.1145 12.598C80.8185 13.8007 81.1705 15.1647 81.1705 16.69C81.1705 18.2153 80.8185 19.5867 80.1145 20.804C79.4105 22.0067 78.4499 22.9527 77.2325 23.642C76.0152 24.3167 74.6805 24.654 73.2285 24.654ZM73.2285 20.65C74.3285 20.65 75.1939 20.2907 75.8245 19.572C76.4699 18.8533 76.7925 17.8927 76.7925 16.69C76.7925 15.458 76.4699 14.49 75.8245 13.786C75.1939 13.0673 74.3285 12.708 73.2285 12.708C72.1139 12.708 71.2412 13.0673 70.6105 13.786C69.9799 14.49 69.6645 15.458 69.6645 16.69C69.6645 17.9073 69.9799 18.8753 70.6105 19.594C71.2412 20.298 72.1139 20.65 73.2285 20.65ZM90.963 24.5L87.883 18.78H87.421V24.5H83.109V8.99H89.907C91.1536 8.99 92.2096 9.21 93.075 9.65C93.9403 10.0753 94.593 10.6693 95.033 11.432C95.473 12.18 95.693 13.0233 95.693 13.962C95.693 15.018 95.3996 15.9493 94.813 16.756C94.241 17.548 93.3976 18.1127 92.283 18.45L95.781 24.5H90.963ZM87.421 15.832H89.555C90.1416 15.832 90.5816 15.6927 90.875 15.414C91.1683 15.1353 91.315 14.732 91.315 14.204C91.315 13.7053 91.161 13.3167 90.853 13.038C90.5596 12.7447 90.127 12.598 89.555 12.598H87.421V15.832ZM101.966 12.444V14.974H106.916V18.252H101.966V21.046H107.576V24.5H97.6539V8.99H107.576V12.444H101.966Z" fill="#F34D4D"/></svg>